<?xml version="1.0" encoding="utf-8"?>
<!-- Generator: Adobe Illustrator 18.0.0, SVG Export Plug-In . SVG Version: 6.00 Build 0)  -->
<!DOCTYPE svg PUBLIC "-//W3C//DTD SVG 1.1//EN" "http://www.w3.org/Graphics/SVG/1.1/DTD/svg11.dtd">
<svg version="1.1" id="Слой_1" xmlns="http://www.w3.org/2000/svg" xmlns:xlink="http://www.w3.org/1999/xlink" x="0px" y="0px"
	 viewBox="0 0 1024 768" enable-background="new 0 0 1024 768" xml:space="preserve">
<path fill="#FF1493"      d="
	M522,100.3c-148.4,0-268.8,120.3-268.8,268.8S373.6,637.9,522,637.9s268.8-120.3,268.8-268.8S670.4,100.3,522,100.3z M522,454
	c-46.9,0-84.9-38-84.9-84.9c0-46.9,38-84.9,84.9-84.9c46.9,0,84.9,38,84.9,84.9C606.9,416,568.9,454,522,454z M522,14.2
	c-196,0-354.9,158.9-354.9,354.9S326,724,522,724s354.9-158.9,354.9-354.9C876.9,173.1,718,14.2,522,14.2z M522.9,21.2
	c7.1,0,12.9,5.8,12.9,12.9s-5.8,12.9-12.9,12.9c-7.1,0-12.9-5.8-12.9-12.9S515.8,21.2,522.9,21.2z M188,381.9
	c-7.1,0-12.9-5.8-12.9-12.9c0-7.1,5.8-12.9,12.9-12.9c7.1,0,12.9,5.8,12.9,12.9C200.8,376.1,195.1,381.9,188,381.9z M521.8,715.7
	c-7.1,0-12.9-5.8-12.9-12.9s5.8-12.9,12.9-12.9c7.1,0,12.9,5.8,12.9,12.9C534.7,710,528.9,715.7,521.8,715.7z M522,680.3
	c-171.9,0-311.2-139.3-311.2-311.2S350.1,57.9,522,57.9s311.2,139.3,311.2,311.2S693.9,680.3,522,680.3z M856.8,383
	c-7.1,0-12.9-5.8-12.9-12.9s5.8-12.9,12.9-12.9c7.1,0,12.9,5.8,12.9,12.9S863.9,383,856.8,383z M737.7,6.3
	c82.3-0.9,172.3,79.9,214,199.6c42.4,121.4,21.1,242.3-46.1,291.5c47.7-56.3,56.9-168.1,17.2-282C883.8,103.6,808.9,22.8,737.7,6.3z
	 M897,41.5c25.2,3,62.1,44.9,88.7,103c27,58.9,34.3,115,19.3,135.3c8.2-24.5-1.8-76.8-27.1-132C953.1,93.5,920.8,52.3,897,41.5z
	 M119.2,570.9c49.7,109.9,133.5,184.4,206.9,192.4C243.5,773.9,144.7,701,91.7,583.9c-52.2-115.5-42.8-236,17.4-292.1
	C68.9,352.8,70.4,463,119.2,570.9z M32.7,559.9c19.8,57.5,48.6,102.2,71.4,114.3c-24.9-4.4-58.2-50.1-79.4-111.3
	C4,502.5,1.9,446.7,18,427.1C8.2,451.3,13.2,503.5,32.7,559.9z"/>
</svg>
